<svg viewBox="0 0 24 26" fill="none" xmlns="http://www.w3.org/2000/svg">
    <path
        d="M6.33333 3.66667H5.26693C3.77345 3.66667 3.02616 3.66667 2.45573 3.95732C1.95396 4.21298 1.54631 4.62063 1.29065 5.1224C1 5.69283 1 6.44012 1 7.93359V9M6.33333 3.66667H17M6.33333 3.66667V1M17 3.66667H18.0669C19.5604 3.66667 20.3061 3.66667 20.8765 3.95732C21.3783 4.21298 21.7873 4.62063 22.043 5.1224C22.3333 5.69227 22.3333 6.43866 22.3333 7.92921V9M17 3.66667V1M1 9V20.7336C1 22.2271 1 22.9734 1.29065 23.5438C1.54631 24.0456 1.95396 24.454 2.45573 24.7096C3.0256 25 3.77199 25 5.26255 25H18.0708C19.5613 25 20.3067 25 20.8765 24.7096C21.3783 24.454 21.7873 24.0456 22.043 23.5438C22.3333 22.974 22.3333 22.2287 22.3333 20.7381V9M1 9H22.3333M17 19.6667H17.0027L17.0026 19.6693L17 19.6693V19.6667ZM11.6667 19.6667H11.6693L11.6693 19.6693L11.6667 19.6693V19.6667ZM6.33333 19.6667H6.336L6.33594 19.6693L6.33333 19.6693V19.6667ZM17.0026 14.3333V14.336L17 14.3359V14.3333H17.0026ZM11.6667 14.3333H11.6693L11.6693 14.336L11.6667 14.3359V14.3333ZM6.33333 14.3333H6.336L6.33594 14.336L6.33333 14.3359V14.3333Z"
        stroke="currentColor" stroke-width="2" stroke-linecap="round" stroke-linejoin="round" />
</svg>
