<svg viewBox="0 0 19 19" fill="none" xmlns="http://www.w3.org/2000/svg">
    <path
        d="M0.5 0.5H0.768346C1.24213 0.5 1.47943 0.5 1.67267 0.585478C1.84304 0.660841 1.98871 0.782176 2.09375 0.936035C2.21269 1.11026 2.25564 1.3429 2.34137 1.80727L4.50004 13.5L14.9218 13.5C15.375 13.5 15.6023 13.5 15.79 13.4199C15.9559 13.3492 16.0989 13.2346 16.2051 13.0889C16.3252 12.9242 16.3761 12.7037 16.4777 12.2631L16.4785 12.26L18.0477 5.45996L18.0481 5.45854C18.2023 4.79016 18.2796 4.45515 18.1947 4.19238C18.1202 3.96182 17.9635 3.76634 17.7556 3.64192C17.5184 3.5 17.1758 3.5 16.4887 3.5H3M15.5 18.5C14.9477 18.5 14.5 18.0523 14.5 17.5C14.5 16.9477 14.9477 16.5 15.5 16.5C16.0523 16.5 16.5 16.9477 16.5 17.5C16.5 18.0523 16.0523 18.5 15.5 18.5ZM5.5 18.5C4.94772 18.5 4.5 18.0523 4.5 17.5C4.5 16.9477 4.94772 16.5 5.5 16.5C6.05228 16.5 6.5 16.9477 6.5 17.5C6.5 18.0523 6.05228 18.5 5.5 18.5Z"
        stroke="currentColor" stroke-linecap="round" stroke-linejoin="round" />
</svg>
