<svg width="27" height="32" viewBox="0 0 27 32" fill="none" xmlns="http://www.w3.org/2000/svg">
    <path
        d="M10.0286 22.6667H1.69523V31M16.6952 9.33333H25.0286V1M1.00024 11.0057C1.93472 8.69277 3.4993 6.6884 5.51615 5.22038C7.533 3.75236 9.92332 2.8792 12.4115 2.70085C14.8997 2.52249 17.3865 3.04567 19.5921 4.21102C21.7977 5.37637 23.6306 7.13756 24.8854 9.29354M25.7245 20.9951C24.79 23.308 23.2254 25.3124 21.2086 26.7804C19.1917 28.2484 16.8038 29.1205 14.3157 29.2988C11.8275 29.4772 9.33867 28.9541 7.13306 27.7887C4.92744 26.6234 3.09327 24.8625 1.83846 22.7065"
        stroke="currentColor" stroke-width="2" stroke-linecap="round" stroke-linejoin="round" />
</svg>
