<svg viewBox="0 0 65 64" fill="none" xmlns="http://www.w3.org/2000/svg">
    <path
        d="M32 0C35.25 0 38.375 0.458332 41.375 1.375C44.4167 2.33333 47.2188 3.67708 49.7812 5.40625C52.3438 7.13542 54.6458 9.20833 56.6875 11.625C58.6875 14.0417 60.3125 16.75 61.5625 19.75C62.8125 22.75 63.5833 25.8125 63.875 28.9375C64.1667 32.1042 64.0104 35.2083 63.4062 38.25C62.8021 41.2917 61.75 44.2083 60.25 47C58.7917 49.7917 56.9167 52.3333 54.625 54.625C52.625 56.6667 50.3958 58.375 47.9375 59.75C45.5208 61.125 42.9688 62.1771 40.2812 62.9062C37.5938 63.6354 34.8542 64 32.0625 64C29.2708 64 26.4792 63.6458 23.6875 62.9375C20.9375 62.1875 18.3542 61.1042 15.9375 59.6875C13.5208 58.2708 11.3333 56.5833 9.375 54.625C7.41667 52.6667 5.72917 50.4792 4.3125 48.0625C2.89583 45.6458 1.8125 43.0625 1.0625 40.3125C0.354167 37.5208 0 34.7292 0 31.9375C0 29.1458 0.364583 26.4062 1.09375 23.7188C1.82292 21.0312 2.875 18.4792 4.25 16.0625C5.625 13.6042 7.33333 11.375 9.375 9.375C10.875 7.875 12.5 6.54167 14.25 5.375C16 4.20833 17.8333 3.22917 19.75 2.4375C21.6667 1.64583 23.6667 1.04167 25.75 0.625C27.7917 0.208332 29.875 0 32 0ZM10.875 10.875C7.95833 13.7917 5.75 17.0833 4.25 20.75C2.79167 24.4167 2.0625 28.1667 2.0625 32C2.0625 35.8333 2.79167 39.6042 4.25 43.3125C5.66667 46.9792 7.83333 50.2917 10.75 53.25C12.1667 54.6667 13.6875 55.9167 15.3125 57C16.9792 58.0833 18.7083 59 20.5 59.75C22.2917 60.5 24.1667 61.0625 26.125 61.4375C28.0417 61.8542 30 62.0417 32 62C35.0417 62 37.9792 61.5625 40.8125 60.6875C43.6458 59.8125 46.2708 58.5729 48.6875 56.9688C51.1042 55.3646 53.25 53.4167 55.125 51.125C57.0417 48.8333 58.5833 46.2917 59.75 43.5C60.9167 40.7083 61.625 37.8333 61.875 34.875C62.1667 31.9167 62.0312 29.0104 61.4688 26.1562C60.9062 23.3021 59.9167 20.5625 58.5 17.9375C57.125 15.3125 55.375 12.9167 53.25 10.75C50.2917 7.83333 46.9792 5.66667 43.3125 4.25C39.6042 2.79167 35.8333 2.0625 32 2.0625C28.1667 2.0625 24.4167 2.79167 20.75 4.25C17.0833 5.75 13.7917 7.95833 10.875 10.875ZM39.5 21.875C41.625 23.9167 42.7396 26.3958 42.8438 29.3125C42.9479 32.2292 42.0417 34.7917 40.125 37L39.875 37.25L32.375 45.125L24.5 37.625C22.3333 35.5417 21.2083 33 21.125 30C21.0417 27 22.0417 24.4167 24.125 22.25C26.2083 20.0833 28.75 18.9688 31.75 18.9062C34.75 18.8438 37.3333 19.8333 39.5 21.875ZM25.875 23.9375C24.2917 25.5625 23.5104 27.5104 23.5312 29.7812C23.5521 32.0521 24.3542 34 25.9375 35.625L26.1875 35.875L32.3125 41.6875L38.125 35.5625C39.75 33.8958 40.5312 31.8958 40.4688 29.5625C40.4062 27.2292 39.5208 25.25 37.8125 23.625C36.1458 22.0417 34.1458 21.2708 31.8125 21.3125C29.4792 21.3542 27.5 22.2292 25.875 23.9375ZM32.3125 25.25C32.9792 25.25 33.6042 25.375 34.1875 25.625C34.7708 25.875 35.2917 26.2292 35.75 26.6875C36.2083 27.1042 36.5521 27.6146 36.7812 28.2188C37.0104 28.8229 37.125 29.4375 37.125 30.0625C37.125 31.3958 36.6562 32.5312 35.7188 33.4688C34.7812 34.4062 33.6458 34.875 32.3125 34.875C30.9792 34.875 29.8438 34.4062 28.9062 33.4688C27.9688 32.5312 27.5 31.3958 27.5 30.0625C27.5 28.7292 27.9688 27.5938 28.9062 26.6562C29.8438 25.7188 30.9792 25.25 32.3125 25.25ZM32.3125 27.6875C31.6458 27.6875 31.0833 27.9167 30.625 28.375C30.1667 28.8333 29.9375 29.3958 29.9375 30.0625C29.9375 30.7292 30.1667 31.3021 30.625 31.7812C31.0833 32.2604 31.6458 32.5 32.3125 32.5C32.9375 32.5 33.4896 32.2812 33.9688 31.8438C34.4479 31.4062 34.7083 30.875 34.75 30.25V30.0625C34.75 29.7708 34.6875 29.4688 34.5625 29.1562C34.4375 28.8438 34.2708 28.5833 34.0625 28.375C33.8125 28.125 33.5417 27.9479 33.25 27.8438C32.9583 27.7396 32.6458 27.6875 32.3125 27.6875Z"
        fill="currentColor" />
</svg>
