<svg viewBox="0 0 54 53" fill="none" xmlns="http://www.w3.org/2000/svg">
    <path
        d="M26.5 0C29.1914 0 31.7793 0.379559 34.2637 1.13867C36.7826 1.93229 39.103 3.04509 41.2251 4.47705C43.3472 5.90902 45.2536 7.62565 46.9443 9.62695C48.6006 11.6283 49.9463 13.8711 50.9814 16.3555C52.0166 18.8398 52.6549 21.376 52.8965 23.9639C53.138 26.5863 53.0086 29.1569 52.5083 31.6758C52.008 34.1947 51.1367 36.61 49.8945 38.9219C48.6868 41.2337 47.1341 43.3385 45.2363 45.2363C43.5801 46.9271 41.7341 48.3418 39.6982 49.4805C37.6969 50.6191 35.5835 51.4904 33.3579 52.0942C31.1323 52.6981 28.8636 53 26.5518 53C24.2399 53 21.9281 52.7067 19.6162 52.1201C17.3389 51.499 15.1995 50.6019 13.1982 49.4287C11.1969 48.2555 9.38542 46.8581 7.76367 45.2363C6.14193 43.6146 4.74447 41.8031 3.57129 39.8018C2.39811 37.8005 1.50098 35.6611 0.879883 33.3838C0.293294 31.0719 0 28.7601 0 26.4482C0 24.1364 0.301921 21.8677 0.905762 19.6421C1.5096 17.4165 2.38086 15.3031 3.51953 13.3018C4.6582 11.2659 6.07292 9.41992 7.76367 7.76367C9.00586 6.52148 10.3516 5.41732 11.8008 4.45117C13.25 3.48503 14.7682 2.67415 16.3555 2.01855C17.9427 1.36296 19.599 0.862629 21.3242 0.517578C23.015 0.172527 24.7402 0 26.5 0ZM9.00586 9.00586C6.59049 11.4212 4.76172 14.1471 3.51953 17.1836C2.31185 20.2201 1.70801 23.3255 1.70801 26.5C1.70801 29.6745 2.31185 32.7972 3.51953 35.8682C4.69271 38.9046 6.48698 41.6478 8.90234 44.0977C10.0755 45.2708 11.335 46.306 12.6807 47.2031C14.0609 48.1003 15.4928 48.8594 16.9766 49.4805C18.4603 50.1016 20.013 50.5674 21.6348 50.8779C23.222 51.223 24.8438 51.3783 26.5 51.3438C29.0189 51.3438 31.4515 50.9814 33.7979 50.2568C36.1442 49.5322 38.318 48.5057 40.3193 47.1772C42.3206 45.8488 44.0977 44.2357 45.6504 42.3379C47.2376 40.4401 48.5143 38.3353 49.4805 36.0234C50.4466 33.7116 51.0332 31.3307 51.2402 28.8809C51.4818 26.431 51.3696 24.0243 50.9038 21.6606C50.438 19.297 49.6185 17.0283 48.4453 14.8545C47.3066 12.6807 45.8574 10.6966 44.0977 8.90234C41.6478 6.48698 38.9046 4.69271 35.8682 3.51953C32.7972 2.31185 29.6745 1.70801 26.5 1.70801C23.3255 1.70801 20.2201 2.31185 17.1836 3.51953C14.1471 4.76172 11.4212 6.5905 9.00586 9.00586ZM32.7109 18.1152C34.4707 19.806 35.3937 21.859 35.48 24.2744C35.5662 26.6898 34.8158 28.8118 33.2285 30.6406L33.0215 30.8477L26.8105 37.3691L20.2891 31.1582C18.4948 29.4329 17.5632 27.3281 17.4941 24.8438C17.4251 22.3594 18.2533 20.2201 19.9785 18.4258C21.7038 16.6315 23.8086 15.7085 26.293 15.6567C28.7773 15.605 30.9167 16.4245 32.7109 18.1152ZM21.4277 19.8232C20.1165 21.1689 19.4696 22.7821 19.4868 24.6626C19.5041 26.5431 20.1683 28.1562 21.4795 29.502L21.6865 29.709L26.7588 34.5225L31.5723 29.4502C32.918 28.07 33.5649 26.4137 33.5132 24.4814C33.4614 22.5492 32.7282 20.9102 31.3135 19.5645C29.9333 18.2533 28.277 17.6149 26.3447 17.6494C24.4124 17.6839 22.7734 18.4085 21.4277 19.8232ZM26.7588 20.9102C27.3109 20.9102 27.8285 21.0137 28.3115 21.2207C28.7946 21.4277 29.2259 21.721 29.6055 22.1006C29.985 22.4456 30.2697 22.8683 30.4595 23.3687C30.6493 23.869 30.7441 24.3779 30.7441 24.8955C30.7441 25.9997 30.356 26.9399 29.5796 27.7163C28.8032 28.4927 27.863 28.8809 26.7588 28.8809C25.6546 28.8809 24.7144 28.4927 23.938 27.7163C23.1616 26.9399 22.7734 25.9997 22.7734 24.8955C22.7734 23.7913 23.1616 22.8511 23.938 22.0747C24.7144 21.2983 25.6546 20.9102 26.7588 20.9102ZM26.7588 22.9287C26.2067 22.9287 25.7409 23.1185 25.3613 23.498C24.9818 23.8776 24.792 24.3434 24.792 24.8955C24.792 25.4476 24.9818 25.922 25.3613 26.3188C25.7409 26.7157 26.2067 26.9141 26.7588 26.9141C27.2764 26.9141 27.7336 26.7329 28.1304 26.3706C28.5272 26.0083 28.7428 25.5684 28.7773 25.0508V24.8955C28.7773 24.654 28.7256 24.4038 28.6221 24.145C28.5186 23.8862 28.3805 23.6706 28.208 23.498C28.001 23.291 27.7767 23.1444 27.5352 23.0581C27.2936 22.9718 27.0348 22.9287 26.7588 22.9287Z"
        fill="currentColor" />
</svg>
