<svg viewBox="0 0 54 53" fill="none" xmlns="http://www.w3.org/2000/svg">
    <path
        d="M26.5 0C29.1914 0 31.7793 0.379559 34.2637 1.13867C36.7826 1.93229 39.103 3.04509 41.2251 4.47705C43.3472 5.90902 45.2536 7.62565 46.9443 9.62695C48.6006 11.6283 49.9463 13.8711 50.9814 16.3555C52.0166 18.8398 52.6549 21.376 52.8965 23.9639C53.138 26.5863 53.0086 29.1569 52.5083 31.6758C52.008 34.1947 51.1367 36.61 49.8945 38.9219C48.6868 41.2337 47.1341 43.3385 45.2363 45.2363C43.5801 46.9271 41.7341 48.3418 39.6982 49.4805C37.6969 50.6191 35.5835 51.4904 33.3579 52.0942C31.1323 52.6981 28.8636 53 26.5518 53C24.2399 53 21.9281 52.7067 19.6162 52.1201C17.3389 51.499 15.1995 50.6019 13.1982 49.4287C11.1969 48.2555 9.38542 46.8581 7.76367 45.2363C6.14193 43.6146 4.74447 41.8031 3.57129 39.8018C2.39811 37.8005 1.50098 35.6611 0.879883 33.3838C0.293294 31.0719 0 28.7601 0 26.4482C0 24.1364 0.301921 21.8677 0.905762 19.6421C1.5096 17.4165 2.38086 15.3031 3.51953 13.3018C4.6582 11.2659 6.07292 9.41992 7.76367 7.76367C9.00586 6.52148 10.3516 5.41732 11.8008 4.45117C13.25 3.48503 14.7682 2.67415 16.3555 2.01855C17.9427 1.36296 19.599 0.862629 21.3242 0.517578C23.015 0.172527 24.7402 0 26.5 0ZM9.00586 9.00586C6.59049 11.4212 4.76172 14.1471 3.51953 17.1836C2.31185 20.2201 1.70801 23.3255 1.70801 26.5C1.70801 29.6745 2.31185 32.7972 3.51953 35.8682C4.69271 38.9046 6.48698 41.6478 8.90234 44.0977C10.0755 45.2708 11.335 46.306 12.6807 47.2031C14.0609 48.1003 15.4928 48.8594 16.9766 49.4805C18.4603 50.1016 20.013 50.5674 21.6348 50.8779C23.222 51.223 24.8438 51.3783 26.5 51.3438C29.0189 51.3438 31.4515 50.9814 33.7979 50.2568C36.1442 49.5322 38.318 48.5057 40.3193 47.1772C42.3206 45.8488 44.0977 44.2357 45.6504 42.3379C47.2376 40.4401 48.5143 38.3353 49.4805 36.0234C50.4466 33.7116 51.0332 31.3307 51.2402 28.8809C51.4818 26.431 51.3696 24.0243 50.9038 21.6606C50.438 19.297 49.6185 17.0283 48.4453 14.8545C47.3066 12.6807 45.8574 10.6966 44.0977 8.90234C41.6478 6.48698 38.9046 4.69271 35.8682 3.51953C32.7972 2.31185 29.6745 1.70801 26.5 1.70801C23.3255 1.70801 20.2201 2.31185 17.1836 3.51953C14.1471 4.76172 11.4212 6.5905 9.00586 9.00586ZM31.3135 15.4756L31.5723 15.6309V15.5791C32.2969 15.9242 32.9266 16.39 33.4614 16.9766C33.9963 17.5632 34.4017 18.236 34.6777 18.9951C34.9193 19.6852 35.04 20.4098 35.04 21.1689C35.04 21.9281 34.8848 22.6527 34.5742 23.3428L34.4707 23.6016L29.3984 34.4707C28.6738 35.9199 27.5438 36.9033 26.0083 37.4209C24.4728 37.9385 22.9805 37.8522 21.5312 37.1621C20.082 36.5065 19.0641 35.4541 18.4775 34.0049C17.891 32.5557 17.8737 31.0892 18.4258 29.6055L18.5293 29.3984L23.5498 18.5293C23.8949 17.8047 24.3607 17.175 24.9473 16.6401C25.5339 16.1053 26.2067 15.6999 26.9658 15.4238C27.6559 15.1478 28.3805 15.0184 29.1396 15.0356C29.8988 15.0529 30.6234 15.1995 31.3135 15.4756ZM20.3408 30.2266C19.8923 31.2272 19.8577 32.2451 20.2373 33.2803C20.6169 34.3154 21.2897 35.0573 22.2559 35.5059C23.2565 35.9889 24.2658 36.0493 25.2837 35.687C26.3016 35.3247 27.0521 34.6605 27.5352 33.6943L27.5869 33.6426L20.3408 30.2266ZM24.585 21.1689L21.1689 28.4668L28.415 31.8311L31.8311 24.585L24.585 21.1689ZM28.208 28.4668C28.346 28.6393 28.4323 28.8205 28.4668 29.0103C28.5013 29.2 28.4668 29.3984 28.3633 29.6055C28.2598 29.778 28.1131 29.916 27.9233 30.0195C27.7336 30.123 27.5352 30.1576 27.3281 30.123C27.1211 30.0885 26.9399 29.9937 26.7847 29.8384C26.6294 29.6831 26.5345 29.502 26.5 29.2949C26.4655 29.0879 26.5 28.8895 26.6035 28.6997C26.707 28.5099 26.8623 28.3633 27.0693 28.2598C27.2419 28.1562 27.4403 28.1304 27.6646 28.1821C27.8888 28.2339 28.07 28.3288 28.208 28.4668ZM24.2744 26.5518C24.516 26.6898 24.6798 26.8882 24.7661 27.147C24.8524 27.4058 24.8438 27.6559 24.7402 27.8975C24.6367 28.139 24.4556 28.3029 24.1968 28.3892C23.938 28.4754 23.6878 28.4668 23.4463 28.3633C23.3083 28.3288 23.1961 28.2598 23.1099 28.1562C23.0236 28.0527 22.9632 27.932 22.9287 27.7939C22.8597 27.6904 22.8338 27.5697 22.8511 27.4316C22.8683 27.2936 22.8942 27.1729 22.9287 27.0693C23.0667 26.7933 23.2651 26.6121 23.5239 26.5259C23.7827 26.4396 24.0329 26.4482 24.2744 26.5518ZM29.1396 24.6367C29.4157 24.6367 29.6486 24.7402 29.8384 24.9473C30.0282 25.1543 30.123 25.3958 30.123 25.6719C30.123 25.9134 30.0368 26.1291 29.8643 26.3188C29.6917 26.5086 29.4847 26.6208 29.2432 26.6553H29.1396C28.8636 26.6553 28.6221 26.5604 28.415 26.3706C28.208 26.1808 28.1045 25.9479 28.1045 25.6719C28.1045 25.3958 28.208 25.1543 28.415 24.9473C28.6221 24.7402 28.8636 24.6367 29.1396 24.6367ZM25.5684 23.084C25.8444 23.084 26.0773 23.1789 26.2671 23.3687C26.4569 23.5584 26.5518 23.7913 26.5518 24.0674C26.5518 24.3434 26.4569 24.5763 26.2671 24.7661C26.0773 24.9559 25.8444 25.0508 25.5684 25.0508C25.2923 25.0508 25.0594 24.9559 24.8696 24.7661C24.6798 24.5763 24.585 24.3434 24.585 24.0674C24.585 23.7913 24.6798 23.5584 24.8696 23.3687C25.0594 23.1789 25.2923 23.084 25.5684 23.084ZM25.5166 19.2021L25.4131 19.3574L32.6592 22.7734L32.7627 22.5664C33.1423 21.6003 33.1595 20.6427 32.8145 19.6938C32.4694 18.745 31.8483 18.029 30.9512 17.5459L30.7441 17.4424C29.778 16.9938 28.786 16.9421 27.7681 17.2871C26.7502 17.6322 25.9997 18.2705 25.5166 19.2021Z"
        fill="currentColor" />
</svg>
