<svg viewBox="0 0 54 53" fill="none" xmlns="http://www.w3.org/2000/svg">
    <path
        d="M26.5 0C29.1914 0 31.7793 0.379559 34.2637 1.13867C36.7826 1.93229 39.103 3.04509 41.2251 4.47705C43.3472 5.90902 45.2536 7.62565 46.9443 9.62695C48.6006 11.6283 49.9463 13.8711 50.9814 16.3555C52.0166 18.8398 52.6549 21.376 52.8965 23.9639C53.138 26.5863 53.0086 29.1569 52.5083 31.6758C52.008 34.1947 51.1367 36.61 49.8945 38.9219C48.6868 41.2337 47.1341 43.3385 45.2363 45.2363C43.5801 46.9271 41.7341 48.3418 39.6982 49.4805C37.6969 50.6191 35.5835 51.4904 33.3579 52.0942C31.1323 52.6981 28.8636 53 26.5518 53C24.2399 53 21.9281 52.7067 19.6162 52.1201C17.3389 51.499 15.1995 50.6019 13.1982 49.4287C11.1969 48.2555 9.38542 46.8581 7.76367 45.2363C6.14193 43.6146 4.74447 41.8031 3.57129 39.8018C2.39811 37.8005 1.50098 35.6611 0.879883 33.3838C0.293294 31.0719 0 28.7601 0 26.4482C0 24.1364 0.301921 21.8677 0.905762 19.6421C1.5096 17.4165 2.38086 15.3031 3.51953 13.3018C4.6582 11.2659 6.07292 9.41992 7.76367 7.76367C9.00586 6.52148 10.3516 5.41732 11.8008 4.45117C13.25 3.48503 14.7682 2.67415 16.3555 2.01855C17.9427 1.36296 19.599 0.862629 21.3242 0.517578C23.015 0.172527 24.7402 0 26.5 0ZM9.00586 9.00586C6.59049 11.4212 4.76172 14.1471 3.51953 17.1836C2.31185 20.2201 1.70801 23.3255 1.70801 26.5C1.70801 29.6745 2.31185 32.7972 3.51953 35.8682C4.69271 38.9046 6.48698 41.6478 8.90234 44.0977C10.0755 45.2708 11.335 46.306 12.6807 47.2031C14.0609 48.1003 15.4928 48.8594 16.9766 49.4805C18.4603 50.1016 20.013 50.5674 21.6348 50.8779C23.222 51.223 24.8438 51.3783 26.5 51.3438C29.0189 51.3438 31.4515 50.9814 33.7979 50.2568C36.1442 49.5322 38.318 48.5057 40.3193 47.1772C42.3206 45.8488 44.0977 44.2357 45.6504 42.3379C47.2376 40.4401 48.5143 38.3353 49.4805 36.0234C50.4466 33.7116 51.0332 31.3307 51.2402 28.8809C51.4818 26.431 51.3696 24.0243 50.9038 21.6606C50.438 19.297 49.6185 17.0283 48.4453 14.8545C47.3066 12.6807 45.8574 10.6966 44.0977 8.90234C41.6478 6.48698 38.9046 4.69271 35.8682 3.51953C32.7972 2.31185 29.6745 1.70801 26.5 1.70801C23.3255 1.70801 20.2201 2.31185 17.1836 3.51953C14.1471 4.76172 11.4212 6.5905 9.00586 9.00586ZM33.1768 30.4854V36.4893H30.9512V30.4854C30.9512 30.3473 30.9167 30.2179 30.8477 30.0972C30.7786 29.9764 30.6924 29.8643 30.5889 29.7607C30.4854 29.6917 30.3646 29.6313 30.2266 29.5796C30.0885 29.5278 29.9505 29.502 29.8125 29.502H23.1875C23.0495 29.502 22.9115 29.5278 22.7734 29.5796C22.6354 29.6313 22.5146 29.6917 22.4111 29.7607C22.3076 29.8643 22.2214 29.9764 22.1523 30.0972C22.0833 30.2179 22.0488 30.3473 22.0488 30.4854V36.4893H19.8232V30.4854C19.8923 29.6227 20.2459 28.8981 20.8843 28.3115C21.5226 27.7249 22.2904 27.4489 23.1875 27.4834H29.8125C30.7096 27.4489 31.4774 27.7249 32.1157 28.3115C32.7541 28.8981 33.1077 29.6227 33.1768 30.4854ZM26.5 16.5107C27.7077 16.4072 28.7601 16.7437 29.6572 17.52C30.5544 18.2964 31.0547 19.2884 31.1582 20.4961C31.0547 21.7038 30.5544 22.6958 29.6572 23.4722C28.7601 24.2485 27.7077 24.585 26.5 24.4814C25.2923 24.585 24.2399 24.2485 23.3428 23.4722C22.4456 22.6958 21.9453 21.7038 21.8418 20.4961C21.9453 19.2884 22.4456 18.2964 23.3428 17.52C24.2399 16.7437 25.2923 16.4072 26.5 16.5107ZM26.5 18.4775C25.9134 18.4775 25.3958 18.6673 24.9473 19.0469C24.4987 19.4264 24.2399 19.9095 24.1709 20.4961C24.2399 21.0827 24.4987 21.5658 24.9473 21.9453C25.3958 22.3249 25.9134 22.5146 26.5 22.5146C27.0866 22.5146 27.5955 22.3249 28.0269 21.9453C28.4582 21.5658 28.7256 21.0827 28.8291 20.4961C28.7256 19.9095 28.4582 19.4264 28.0269 19.0469C27.5955 18.6673 27.0866 18.4775 26.5 18.4775Z"
        fill="currentColor" />
</svg>
