<svg viewBox="0 0 64 64" fill="none" xmlns="http://www.w3.org/2000/svg">
    <path
        d="M35.6875 47.375H23.625C21.9583 47.375 20.5312 46.7917 19.3438 45.625C18.1562 44.4583 17.5625 43.0417 17.5625 41.375V22.5625C17.5625 20.8958 18.1562 19.4688 19.3438 18.2812C20.5312 17.0938 21.9583 16.5 23.625 16.5H31.375C31.7083 16.5 31.9896 16.6146 32.2188 16.8438C32.4479 17.0729 32.5625 17.3542 32.5625 17.6875C32.5625 18.0208 32.4479 18.3125 32.2188 18.5625C31.9896 18.8125 31.7083 18.9375 31.375 18.9375H23.625C22.625 18.9375 21.7708 19.2917 21.0625 20C20.3542 20.7083 20 21.5625 20 22.5625V41.375C20 42.375 20.3542 43.2292 21.0625 43.9375C21.7708 44.6458 22.625 45 23.625 45H35.6875C36.6875 45 37.5417 44.6458 38.25 43.9375C38.9583 43.2292 39.3125 42.375 39.3125 41.375V34.625C39.3125 34.2917 39.4271 34 39.6562 33.75C39.8854 33.5 40.1667 33.375 40.5 33.375C40.8333 33.375 41.1146 33.5 41.3438 33.75C41.5729 34 41.6875 34.2917 41.6875 34.625V41.375C41.6875 43.0417 41.1042 44.4583 39.9375 45.625C38.7708 46.7917 37.3542 47.375 35.6875 47.375ZM28.4375 26.1875H23.625C23.2917 26.1875 23 26.0625 22.75 25.8125C22.5 25.5625 22.375 25.2708 22.375 24.9375C22.375 24.6042 22.5 24.3229 22.75 24.0938C23 23.8646 23.2917 23.75 23.625 23.75H28.4375C28.7708 23.75 29.0521 23.8646 29.2812 24.0938C29.5104 24.3229 29.625 24.6042 29.625 24.9375C29.625 25.2708 29.5104 25.5625 29.2812 25.8125C29.0521 26.0625 28.7708 26.1875 28.4375 26.1875ZM28.4375 31H23.625C23.2917 31 23 30.875 22.75 30.625C22.5 30.375 22.375 30.0833 22.375 29.75C22.375 29.4167 22.5 29.1354 22.75 28.9062C23 28.6771 23.2917 28.5625 23.625 28.5625H28.4375C28.7708 28.5625 29.0521 28.6771 29.2812 28.9062C29.5104 29.1354 29.625 29.4167 29.625 29.75C29.625 30.0833 29.5104 30.375 29.2812 30.625C29.0521 30.875 28.7708 31 28.4375 31ZM30.875 42.5625C30.7083 42.5625 30.5521 42.5312 30.4062 42.4688C30.2604 42.4062 30.125 42.3333 30 42.25L27.5625 39.8125C27.4792 39.6875 27.4062 39.5521 27.3438 39.4062C27.2812 39.2604 27.25 39.1042 27.25 38.9375C27.25 38.6042 27.3646 38.3229 27.5938 38.0938C27.8229 37.8646 28.1042 37.75 28.4375 37.75C28.6042 37.75 28.7604 37.7812 28.9062 37.8438C29.0521 37.9062 29.1875 38 29.3125 38.125L30.875 39.6875L34.8125 35.6875C34.9375 35.5625 35.0729 35.4688 35.2188 35.4062C35.3646 35.3438 35.5208 35.3125 35.6875 35.3125C36.0208 35.3125 36.3021 35.4375 36.5312 35.6875C36.7604 35.9375 36.875 36.2292 36.875 36.5625C36.875 36.7292 36.8438 36.8854 36.7812 37.0312C36.7188 37.1771 36.6458 37.2917 36.5625 37.375L31.6875 42.25C31.6042 42.3333 31.4896 42.4062 31.3438 42.4688C31.1979 42.5312 31.0417 42.5625 30.875 42.5625ZM40.5 31C40.4167 31 40.3229 30.9896 40.2188 30.9688C40.1146 30.9479 40.0208 30.9167 39.9375 30.875H40C39.125 30.4583 38.3542 29.9375 37.6875 29.3125C37.0208 28.6875 36.4583 28 36 27.25L35.9375 27.1875C35.4792 26.4375 35.125 25.625 34.875 24.75C34.625 23.875 34.5 22.9375 34.5 21.9375V20.125C34.5 19.9583 34.5208 19.8125 34.5625 19.6875C34.6042 19.5625 34.6667 19.4375 34.75 19.3125C35.4583 18.4792 36.3021 17.8021 37.2812 17.2812C38.2604 16.7604 39.3333 16.5 40.5 16.5C41.6667 16.5 42.75 16.75 43.75 17.25C44.75 17.75 45.5833 18.4375 46.25 19.3125C46.3333 19.4375 46.4062 19.5625 46.4688 19.6875C46.5312 19.8125 46.5625 19.9583 46.5625 20.125V21.9375C46.5625 22.9375 46.4271 23.875 46.1562 24.75C45.8854 25.625 45.5208 26.4583 45.0625 27.25V27.1875C44.5625 27.9792 43.9792 28.6875 43.3125 29.3125C42.6458 29.9375 41.9167 30.4375 41.125 30.8125L41.0625 30.875C40.9792 30.9167 40.8854 30.9479 40.7812 30.9688C40.6771 30.9896 40.5833 31 40.5 31ZM36.875 20.625V21.9375C36.875 23.3125 37.2083 24.5625 37.875 25.6875C38.5417 26.8125 39.4167 27.7083 40.5 28.375C41.5833 27.7083 42.4583 26.8125 43.125 25.6875C43.7917 24.5625 44.125 23.3125 44.125 21.9375V20.625C43.7083 20.0833 43.1875 19.6667 42.5625 19.375C41.9375 19.0833 41.25 18.9375 40.5 18.9375C39.7917 18.9375 39.125 19.0833 38.5 19.375C37.875 19.6667 37.3333 20.0833 36.875 20.625ZM32 0C36.4167 0 40.5625 0.833332 44.4375 2.5C48.3542 4.16667 51.7604 6.44792 54.6562 9.34375C57.5521 12.2396 59.8333 15.6458 61.5 19.5625C63.1667 23.4375 64 27.5833 64 32C64 34.2083 63.7917 36.3542 63.375 38.4375C62.9167 40.5208 62.2812 42.5208 61.4688 44.4375C60.6562 46.3542 59.6875 48.1667 58.5625 49.875C57.3958 51.5833 56.0833 53.1667 54.625 54.625C53.1667 56.0833 51.5833 57.3958 49.875 58.5625C48.1667 59.6875 46.3542 60.6562 44.4375 61.4688C42.5208 62.2812 40.5208 62.9167 38.4375 63.375C36.3542 63.7917 34.2083 64 32 64C27.5833 64 23.4375 63.1667 19.5625 61.5C15.6458 59.8333 12.2396 57.5521 9.34375 54.6562C6.44792 51.7604 4.16667 48.3542 2.5 44.4375C0.833333 40.5625 0 36.4167 0 32C0 29.7917 0.208333 27.6458 0.625 25.5625C1.08333 23.4792 1.71875 21.4792 2.53125 19.5625C3.34375 17.6458 4.3125 15.8333 5.4375 14.125C6.60417 12.4167 7.91667 10.8333 9.375 9.375C10.8333 7.91667 12.3958 6.60417 14.0625 5.4375C15.7708 4.3125 17.5833 3.34375 19.5 2.53125C21.4167 1.71875 23.4167 1.08333 25.5 0.625C27.5833 0.208332 29.7292 0 31.9375 0C31.9375 0 31.9479 0 31.9688 0C31.9896 0 32 0 32 0ZM32 62C36.125 62 40.0208 61.2292 43.6875 59.6875C47.3125 58.1042 50.4896 55.9479 53.2188 53.2188C55.9479 50.4896 58.1042 47.3125 59.6875 43.6875C61.2292 40.0208 62 36.125 62 32C62 29.9167 61.8125 27.8958 61.4375 25.9375C61.0208 23.9792 60.4271 22.1042 59.6562 20.3125C58.8854 18.5208 57.9583 16.8125 56.875 15.1875C55.7917 13.6042 54.5833 12.125 53.25 10.75C51.875 9.41667 50.3958 8.20833 48.8125 7.125C47.1875 6.04167 45.4896 5.125 43.7188 4.375C41.9479 3.625 40.0833 3.0625 38.125 2.6875C36.1667 2.27083 34.1458 2.0625 32.0625 2.0625C27.9375 2.0625 24.0417 2.85417 20.375 4.4375C16.75 5.97917 13.5729 8.11458 10.8438 10.8438C8.11458 13.5729 5.97917 16.75 4.4375 20.375C2.85417 24.0417 2.0625 27.9375 2.0625 32.0625C2.0625 34.1458 2.27083 36.1667 2.6875 38.125C3.0625 40.0833 3.625 41.9479 4.375 43.7188C5.125 45.4896 6.04167 47.1875 7.125 48.8125C8.20833 50.3958 9.41667 51.875 10.75 53.25C12.125 54.5833 13.6042 55.7917 15.1875 56.875C16.7708 57.9583 18.4583 58.8854 20.25 59.6562C22.0417 60.4271 23.9167 61.0208 25.875 61.4375C27.8333 61.8125 29.8542 62 31.9375 62C31.9375 62 31.9479 62 31.9688 62C31.9896 62 32 62 32 62Z"
        fill="currentColor" />
</svg>
