<svg viewBox="0 0 30 30" fill="none" xmlns="http://www.w3.org/2000/svg">
    <path
        d="M20.6585 1.11328C21.5765 1.48438 22.4456 1.94336 23.2659 2.49023C24.0862 3.01758 24.8431 3.62793 25.5364 4.32129C26.2298 5.01465 26.8499 5.76172 27.3968 6.5625C27.9632 7.38281 28.4417 8.25195 28.8323 9.16992C29.2034 10.0879 29.4964 11.0254 29.7112 11.9824C29.9065 12.959 30.0042 13.9307 30.0042 14.8975C30.0042 15.8643 29.9163 16.8359 29.7405 17.8125C29.5647 18.7891 29.2815 19.7363 28.8909 20.6543C28.5198 21.5723 28.0608 22.4414 27.514 23.2617C26.9866 24.082 26.3763 24.8389 25.6829 25.5322C24.9895 26.2256 24.2425 26.8555 23.4417 27.4219C22.6214 27.9688 21.7522 28.4375 20.8343 28.8281C19.9163 29.2188 18.9641 29.5117 17.9778 29.707C16.9915 29.9023 16.0003 30 15.0042 30C14.1448 30 13.2854 29.9219 12.4261 29.7656C11.5862 29.6289 10.7659 29.4141 9.96512 29.1211C9.16434 28.8281 8.38309 28.4766 7.62137 28.0664C6.87919 27.6367 6.17606 27.1484 5.512 26.6016C4.84794 26.0547 4.2327 25.459 3.66629 24.8145C3.09989 24.1699 2.59696 23.4814 2.15751 22.749C1.71805 22.0166 1.34208 21.25 1.02958 20.4492C0.717076 19.6484 0.472935 18.8281 0.297154 17.9883C0.121373 17.1289 0.0237165 16.2695 0.00418527 15.4102C-0.015346 14.5508 0.0334821 13.7012 0.15067 12.8613C0.267857 12.0215 0.46317 11.1914 0.736607 10.3711C0.990513 9.55078 1.32254 8.75977 1.7327 7.99805C2.14286 7.23633 2.61161 6.51367 3.13895 5.83008C3.66629 5.14648 4.24247 4.5166 4.86747 3.94043C5.49247 3.36426 6.16629 2.8418 6.88895 2.37305C7.61161 1.92383 8.37333 1.52344 9.17411 1.17188C10.0725 0.800781 11.01 0.507812 11.9866 0.292969C12.9436 0.0976562 13.9104 0 14.887 0C15.8636 0 16.8401 0.0878906 17.8167 0.263672C18.7737 0.439453 19.721 0.722656 20.6585 1.11328ZM15.385 7.00195H14.2718C13.5296 7.00195 13.012 7.00684 12.719 7.0166C12.4261 7.02637 12.0843 7.04102 11.6936 7.06055C11.3616 7.06055 11.0345 7.08984 10.7122 7.14844C10.3899 7.20703 10.0725 7.29492 9.76004 7.41211C9.48661 7.5293 9.2327 7.66602 8.99833 7.82227C8.76395 7.97852 8.54911 8.1543 8.35379 8.34961C8.13895 8.54492 7.9534 8.76465 7.79715 9.00879C7.6409 9.25293 7.51395 9.50195 7.41629 9.75586C7.29911 10.0684 7.21122 10.3857 7.15262 10.708C7.09403 11.0303 7.05497 11.3574 7.03544 11.6895C7.03544 12.0996 7.03055 12.4561 7.02079 12.7588C7.01102 13.0615 7.00614 13.623 7.00614 14.4434V15.5859C7.00614 16.3672 7.00614 16.9092 7.00614 17.2119C7.00614 17.5146 7.0159 17.8516 7.03544 18.2227V18.3105C7.05497 18.6426 7.09403 18.9697 7.15262 19.292C7.21122 19.6143 7.29911 19.9316 7.41629 20.2441C7.51395 20.498 7.6409 20.7471 7.79715 20.9912C7.9534 21.2354 8.13895 21.4551 8.35379 21.6504C8.54911 21.8652 8.76395 22.0459 8.99833 22.1924C9.2327 22.3389 9.48661 22.4707 9.76004 22.5879C10.0725 22.7051 10.3899 22.793 10.7122 22.8516C11.0345 22.9102 11.3616 22.9395 11.6936 22.9395C11.7913 22.959 11.8841 22.9688 11.972 22.9688C12.0598 22.9688 12.1429 22.9688 12.221 22.9688H12.3675C12.5823 22.9883 12.8411 22.998 13.1438 22.998C13.4466 22.998 13.8714 22.998 14.4182 22.998H15.5608C16.3811 22.998 16.9475 22.9932 17.26 22.9834C17.5725 22.9736 17.9143 22.959 18.2854 22.9395C18.6175 22.9395 18.9495 22.9102 19.2815 22.8516C19.6136 22.793 19.9358 22.7051 20.2483 22.5879C20.5022 22.4707 20.7513 22.3389 20.9954 22.1924C21.2395 22.0459 21.4593 21.8652 21.6546 21.6504C21.8499 21.4551 22.0257 21.2354 22.1819 20.9912C22.3382 20.7471 22.4749 20.498 22.5921 20.2441C22.6897 19.9707 22.7679 19.6924 22.8265 19.4092C22.885 19.126 22.9241 18.8379 22.9436 18.5449V18.3105C22.9632 18.2129 22.9729 18.1201 22.9729 18.0322C22.9729 17.9443 22.9729 17.8516 22.9729 17.7539V17.6367C22.9925 17.4023 23.0022 17.1387 23.0022 16.8457C23.0022 16.5527 23.0022 16.1328 23.0022 15.5859V14.4434C23.0022 13.623 22.9974 13.0615 22.9876 12.7588C22.9778 12.4561 22.9632 12.0996 22.9436 11.6895C22.9436 11.3574 22.9143 11.0303 22.8557 10.708C22.7972 10.3857 22.7093 10.0684 22.5921 9.75586C22.4749 9.50195 22.3382 9.25293 22.1819 9.00879C22.0257 8.76465 21.8499 8.54492 21.6546 8.34961C21.4593 8.1543 21.2395 7.97852 20.9954 7.82227C20.7513 7.66602 20.5022 7.5293 20.2483 7.41211C19.9358 7.29492 19.6136 7.20703 19.2815 7.14844C18.9495 7.08984 18.6175 7.06055 18.2854 7.06055C18.2073 7.04102 18.1341 7.03125 18.0657 7.03125C17.9974 7.03125 17.9241 7.03125 17.846 7.03125H17.6995C17.4847 7.01172 17.2503 7.00195 16.9964 7.00195C16.7425 7.00195 16.3811 7.00195 15.9124 7.00195H15.5608C15.5413 7.00195 15.5169 7.00195 15.4876 7.00195C15.4583 7.00195 15.4241 7.00195 15.385 7.00195ZM18.2268 8.49609C18.4807 8.49609 18.7347 8.52051 18.9886 8.56934C19.2425 8.61816 19.4866 8.68164 19.721 8.75977C19.8968 8.81836 20.0628 8.90137 20.219 9.00879C20.3753 9.11621 20.512 9.23828 20.6292 9.375C20.7659 9.49219 20.8831 9.62891 20.9807 9.78516C21.0784 9.94141 21.1663 10.1074 21.2444 10.2832C21.3225 10.5176 21.386 10.7617 21.4349 11.0156C21.4837 11.2695 21.5081 11.5234 21.5081 11.7773C21.5276 12.1289 21.5423 12.4365 21.552 12.7002C21.5618 12.9639 21.5667 13.4375 21.5667 14.1211V14.4434C21.5667 14.4629 21.5667 14.4873 21.5667 14.5166C21.5667 14.5459 21.5667 14.5801 21.5667 14.6191V15.3809C21.5667 15.4004 21.5667 15.4248 21.5667 15.4541C21.5667 15.4834 21.5667 15.5176 21.5667 15.5566V15.8789C21.5667 16.5625 21.5618 17.0361 21.552 17.2998C21.5423 17.5635 21.5276 17.8711 21.5081 18.2227C21.5081 18.4766 21.4837 18.7305 21.4349 18.9844C21.386 19.2383 21.3225 19.4824 21.2444 19.7168C21.1663 19.8926 21.0784 20.0586 20.9807 20.2148C20.8831 20.3711 20.7659 20.5078 20.6292 20.625C20.512 20.7617 20.3753 20.8789 20.219 20.9766C20.0628 21.0742 19.8968 21.1621 19.721 21.2402C19.4866 21.3184 19.2425 21.3818 18.9886 21.4307C18.7347 21.4795 18.4807 21.5039 18.2268 21.5039C17.8362 21.5234 17.4944 21.5381 17.2015 21.5479C16.9085 21.5576 16.3616 21.5625 15.5608 21.5625H14.4475C13.6272 21.5625 13.0706 21.5576 12.7776 21.5479C12.4847 21.5381 12.1526 21.5234 11.7815 21.5039C11.5276 21.5039 11.2737 21.4795 11.0198 21.4307C10.7659 21.3818 10.5218 21.3184 10.2874 21.2402C10.1116 21.1621 9.94559 21.0742 9.78934 20.9766C9.63309 20.8789 9.48661 20.7617 9.34989 20.625C9.2327 20.5078 9.1204 20.3711 9.01297 20.2148C8.90555 20.0586 8.82254 19.8926 8.76395 19.7168C8.66629 19.4824 8.59793 19.2383 8.55887 18.9844C8.51981 18.7305 8.50028 18.4766 8.50028 18.2227C8.48075 18.1445 8.47098 18.0615 8.47098 17.9736C8.47098 17.8857 8.47098 17.8125 8.47098 17.7539V17.6074C8.45145 17.3926 8.44168 17.1387 8.44168 16.8457C8.44168 16.5527 8.44168 16.123 8.44168 15.5566V14.4434C8.44168 13.877 8.44168 13.4473 8.44168 13.1543C8.44168 12.8613 8.45145 12.6074 8.47098 12.3926V12.1875C8.47098 12.1289 8.47098 12.0654 8.47098 11.9971C8.47098 11.9287 8.48075 11.8555 8.50028 11.7773C8.50028 11.5234 8.51981 11.2695 8.55887 11.0156C8.59793 10.7617 8.66629 10.5176 8.76395 10.2832C8.82254 10.1074 8.90555 9.94141 9.01297 9.78516C9.1204 9.62891 9.2327 9.49219 9.34989 9.375C9.48661 9.23828 9.63309 9.11621 9.78934 9.00879C9.94559 8.90137 10.1116 8.81836 10.2874 8.75977C10.5218 8.68164 10.7659 8.61816 11.0198 8.56934C11.2737 8.52051 11.5276 8.49609 11.7815 8.49609C12.1136 8.47656 12.4065 8.46191 12.6604 8.45215C12.9143 8.44238 13.3343 8.4375 13.9202 8.4375H15.7366C16.4788 8.4375 16.9915 8.44238 17.2747 8.45215C17.5579 8.46191 17.8753 8.47656 18.2268 8.49609ZM15.0042 10.8984C14.594 10.8984 14.1936 10.957 13.803 11.0742C13.4124 11.1914 13.0511 11.3574 12.719 11.5723C12.387 11.8066 12.0891 12.0801 11.8255 12.3926C11.5618 12.7051 11.3518 13.0469 11.1956 13.418C11.0393 13.8086 10.9417 14.2041 10.9026 14.6045C10.8636 15.0049 10.8831 15.4004 10.9612 15.791C11.0393 16.2012 11.1761 16.582 11.3714 16.9336C11.5667 17.2852 11.8108 17.6074 12.1038 17.9004C12.3772 18.1934 12.6946 18.4326 13.0559 18.6182C13.4173 18.8037 13.7932 18.9453 14.1839 19.043C14.594 19.1211 14.9993 19.1406 15.3997 19.1016C15.8001 19.0625 16.1858 18.9648 16.5569 18.8086C16.9475 18.6523 17.2991 18.4424 17.6116 18.1787C17.9241 17.915 18.1878 17.6172 18.4026 17.2852C18.637 16.9531 18.8128 16.5918 18.93 16.2012C19.0472 15.8105 19.1057 15.4102 19.1057 15C19.1057 14.4531 19.0032 13.9307 18.7981 13.4326C18.5931 12.9346 18.2952 12.4902 17.9046 12.0996C17.514 11.709 17.0696 11.4111 16.5716 11.2061C16.0735 11.001 15.5511 10.8984 15.0042 10.8984ZM15.0042 12.334C15.2581 12.334 15.512 12.373 15.7659 12.4512C16.0198 12.5293 16.2542 12.6367 16.469 12.7734C16.7034 12.9297 16.9036 13.1104 17.0696 13.3154C17.2356 13.5205 17.3675 13.7402 17.4651 13.9746C17.5628 14.2285 17.6263 14.4873 17.6556 14.751C17.6849 15.0146 17.6702 15.2734 17.6116 15.5273C17.5725 15.7812 17.4895 16.0254 17.3626 16.2598C17.2356 16.4941 17.0745 16.6992 16.8792 16.875C16.7034 17.0703 16.4983 17.2314 16.264 17.3584C16.0296 17.4854 15.7854 17.5684 15.5315 17.6074C15.2581 17.666 14.9944 17.6807 14.7405 17.6514C14.4866 17.6221 14.2327 17.5586 13.9788 17.4609C13.7444 17.3633 13.5247 17.2314 13.3196 17.0654C13.1145 16.8994 12.9339 16.709 12.7776 16.4941C12.6409 16.2598 12.5335 16.0205 12.4554 15.7764C12.3772 15.5322 12.3382 15.2734 12.3382 15C12.3382 14.6484 12.4065 14.3115 12.5432 13.9893C12.68 13.667 12.8753 13.3789 13.1292 13.125C13.3636 12.8711 13.6468 12.6758 13.9788 12.5391C14.3108 12.4023 14.6526 12.334 15.0042 12.334ZM19.2815 9.75586C19.1839 9.75586 19.0911 9.77051 19.0032 9.7998C18.9153 9.8291 18.8225 9.87305 18.7249 9.93164C18.6468 9.99023 18.5784 10.0537 18.5198 10.1221C18.4612 10.1904 18.4124 10.2734 18.3733 10.3711C18.3538 10.4492 18.3391 10.5371 18.3294 10.6348C18.3196 10.7324 18.3245 10.8301 18.344 10.9277C18.3636 11.0059 18.3929 11.0889 18.4319 11.1768C18.471 11.2646 18.5296 11.3379 18.6077 11.3965C18.6663 11.4746 18.7395 11.5332 18.8274 11.5723C18.9153 11.6113 18.9983 11.6406 19.0765 11.6602C19.1741 11.6797 19.2718 11.6846 19.3694 11.6748C19.4671 11.665 19.555 11.6406 19.6331 11.6016C19.7307 11.582 19.8138 11.5381 19.8821 11.4697C19.9505 11.4014 20.014 11.3281 20.0725 11.25C20.1311 11.1719 20.1751 11.0889 20.2044 11.001C20.2337 10.9131 20.2483 10.8203 20.2483 10.7227C20.2288 10.6641 20.2141 10.6055 20.2044 10.5469C20.1946 10.4883 20.18 10.4297 20.1604 10.3711C20.1409 10.3125 20.1116 10.2539 20.0725 10.1953C20.0335 10.1367 19.9944 10.0879 19.9554 10.0488C19.8968 10.0098 19.8431 9.9707 19.7942 9.93164C19.7454 9.89258 19.6917 9.86328 19.6331 9.84375C19.5745 9.82422 19.5159 9.80957 19.4573 9.7998C19.3987 9.79004 19.3401 9.78516 19.2815 9.78516V9.75586Z"
        fill="currentColor" />
</svg>
