<svg viewBox="0 0 64 64" fill="none" xmlns="http://www.w3.org/2000/svg">
    <path
        d="M32 64C27.5833 64 23.4375 63.1667 19.5625 61.5C15.6875 59.7917 12.3021 57.4896 9.40625 54.5938C6.51042 51.6979 4.20833 48.3125 2.5 44.4375C0.833333 40.5625 0 36.4167 0 32C0 27.5833 0.833333 23.4375 2.5 19.5625C4.20833 15.6875 6.51042 12.3021 9.40625 9.40625C12.3021 6.51042 15.6875 4.20833 19.5625 2.5C23.4375 0.833332 27.5833 0 32 0C36.4167 0 40.5625 0.833332 44.4375 2.5C48.3125 4.20833 51.6979 6.51042 54.5938 9.40625C57.4896 12.3021 59.7917 15.6875 61.5 19.5625C63.1667 23.4375 64 27.5833 64 32C64 36.4167 63.1667 40.5625 61.5 44.4375C59.7917 48.3125 57.4896 51.6979 54.5938 54.5938C51.6979 57.4896 48.3125 59.7917 44.4375 61.5C40.5625 63.1667 36.4167 64 32 64ZM32 2.1875C27.875 2.1875 24.0208 2.97917 20.4375 4.5625C16.8125 6.10417 13.6458 8.22917 10.9375 10.9375C8.22917 13.6458 6.10417 16.8125 4.5625 20.4375C2.97917 24.0208 2.1875 27.875 2.1875 32C2.1875 36.125 2.97917 39.9792 4.5625 43.5625C6.10417 47.1875 8.22917 50.3542 10.9375 53.0625C13.6458 55.7708 16.8125 57.8958 20.4375 59.4375C24.0208 61.0208 27.875 61.8125 32 61.8125C36.125 61.8125 39.9792 61.0208 43.5625 59.4375C47.1875 57.8958 50.3542 55.7708 53.0625 53.0625C55.7708 50.3542 57.8958 47.1875 59.4375 43.5625C61.0208 39.9792 61.8125 36.125 61.8125 32C61.8125 27.875 61.0208 24.0208 59.4375 20.4375C57.8958 16.8125 55.7708 13.6458 53.0625 10.9375C50.3542 8.22917 47.1875 6.10417 43.5625 4.5625C39.9792 2.97917 36.125 2.1875 32 2.1875ZM38.0625 45.25C36.0625 45.25 34.3646 44.5521 32.9688 43.1562C31.5729 41.7604 30.875 40.0625 30.875 38.0625C30.875 36.0625 31.5729 34.3646 32.9688 32.9688C34.3646 31.5729 36.0625 30.875 38.0625 30.875C40.0625 30.875 41.7604 31.5729 43.1562 32.9688C44.5521 34.3646 45.25 36.0625 45.25 38.0625C45.25 40.0625 44.5521 41.7604 43.1562 43.1562C41.7604 44.5521 40.0625 45.25 38.0625 45.25ZM38.0625 32C36.3958 32 34.9688 32.5938 33.7812 33.7812C32.5938 34.9688 32 36.3958 32 38.0625C32 39.7292 32.5938 41.1562 33.7812 42.3438C34.9688 43.5312 36.3958 44.125 38.0625 44.125C39.7292 44.125 41.1562 43.5312 42.3438 42.3438C43.5312 41.1562 44.125 39.7292 44.125 38.0625C44.125 36.3958 43.5312 34.9688 42.3438 33.7812C41.1562 32.5938 39.7292 32 38.0625 32ZM38.0625 45.4375C36.0208 45.4375 34.2604 44.7188 32.7812 43.2812C31.3021 41.8438 30.5625 40.0625 30.5625 37.9375C30.5625 35.8542 31.2917 34.0833 32.75 32.625C34.2083 31.1667 35.9792 30.4375 38.0625 30.4375C40.1458 30.4375 41.9167 31.1667 43.375 32.625C44.8333 34.0833 45.5625 35.8542 45.5625 37.9375C45.5625 40.0625 44.8229 41.8438 43.3438 43.2812C41.8646 44.7188 40.1042 45.4375 38.0625 45.4375ZM38.0625 31.125C36.1875 31.125 34.5833 31.7917 33.25 33.125C31.9167 34.4583 31.25 36.0625 31.25 37.9375C31.25 39.8125 31.9167 41.4271 33.25 42.7812C34.5833 44.1354 36.1875 44.8125 38.0625 44.8125C39.9375 44.8125 41.5521 44.1354 42.9062 42.7812C44.2604 41.4271 44.9375 39.8125 44.9375 37.9375C44.9375 36.0625 44.2604 34.4583 42.9062 33.125C41.5521 31.7917 39.9375 31.125 38.0625 31.125ZM38.0625 44.375C36.3125 44.375 34.8125 43.75 33.5625 42.5C32.3125 41.25 31.6875 39.7292 31.6875 37.9375C31.6875 36.1875 32.3125 34.6875 33.5625 33.4375C34.8125 32.1875 36.3125 31.5625 38.0625 31.5625C39.8125 31.5625 41.3229 32.1875 42.5938 33.4375C43.8646 34.6875 44.5 36.1875 44.5 37.9375C44.5 39.7292 43.8646 41.25 42.5938 42.5C41.3229 43.75 39.8125 44.375 38.0625 44.375ZM38.0625 32.25C36.4792 32.25 35.125 32.8125 34 33.9375C32.875 35.0625 32.3125 36.3958 32.3125 37.9375C32.3125 39.4792 32.8854 40.8229 34.0312 41.9688C35.1771 43.1146 36.5208 43.6875 38.0625 43.6875C39.6042 43.6875 40.9479 43.1146 42.0938 41.9688C43.2396 40.8229 43.8125 39.4792 43.8125 37.9375C43.8125 36.3958 43.2604 35.0625 42.1562 33.9375C41.0521 32.8125 39.6875 32.25 38.0625 32.25ZM38.0625 41.9375C37.8958 41.9375 37.7604 41.8854 37.6562 41.7812C37.5521 41.6771 37.5 41.5417 37.5 41.375V36.9375C37.5 36.7708 37.5521 36.6458 37.6562 36.5625C37.7604 36.4792 37.8958 36.4375 38.0625 36.4375C38.2292 36.4375 38.3646 36.4792 38.4688 36.5625C38.5729 36.6458 38.625 36.7708 38.625 36.9375V41.375C38.625 41.5417 38.5729 41.6771 38.4688 41.7812C38.3646 41.8854 38.2292 41.9375 38.0625 41.9375ZM38.0625 42.125C37.8542 42.125 37.6562 42.0521 37.4688 41.9062C37.2812 41.7604 37.1875 41.5417 37.1875 41.25V36.875C37.1875 36.625 37.2604 36.4167 37.4062 36.25C37.5521 36.0833 37.7708 36 38.0625 36C38.3542 36 38.5729 36.0729 38.7188 36.2188C38.8646 36.3646 38.9375 36.5833 38.9375 36.875V41.25C38.8958 41.5417 38.7917 41.7604 38.625 41.9062C38.4583 42.0521 38.2708 42.125 38.0625 42.125ZM38.0625 36.625C38.0208 36.625 37.9792 36.6458 37.9375 36.6875C37.8958 36.7292 37.875 36.7917 37.875 36.875V41.25C37.875 41.3333 37.8958 41.3958 37.9375 41.4375C37.9792 41.4792 38.0208 41.5 38.0625 41.5C38.1042 41.5 38.1562 41.4792 38.2188 41.4375C38.2812 41.3958 38.3125 41.3333 38.3125 41.25V36.875C38.3542 36.875 38.3333 36.8333 38.25 36.75C38.1667 36.6667 38.1042 36.625 38.0625 36.625ZM38.0625 35.3125C38.2292 35.3125 38.3646 35.2604 38.4688 35.1562C38.5729 35.0521 38.625 34.9167 38.625 34.75C38.625 34.5833 38.5729 34.4479 38.4688 34.3438C38.3646 34.2396 38.2292 34.1875 38.0625 34.1875C37.8958 34.1875 37.7604 34.2396 37.6562 34.3438C37.5521 34.4479 37.5 34.5833 37.5 34.75C37.5 34.9167 37.5521 35.0521 37.6562 35.1562C37.7604 35.2604 37.8958 35.3125 38.0625 35.3125ZM38.0625 35.5C37.8542 35.5 37.6562 35.4271 37.4688 35.2812C37.2812 35.1354 37.1875 34.9167 37.1875 34.625C37.1875 34.375 37.2604 34.1667 37.4062 34C37.5521 33.8333 37.7708 33.75 38.0625 33.75C38.3542 33.75 38.5729 33.8333 38.7188 34C38.8646 34.1667 38.9375 34.375 38.9375 34.625C38.9375 34.9167 38.8438 35.1354 38.6562 35.2812C38.4688 35.4271 38.2708 35.5 38.0625 35.5ZM38.0625 34.4375C38.0208 34.4375 37.9792 34.4583 37.9375 34.5C37.8958 34.5417 37.875 34.5833 37.875 34.625C37.875 34.7083 37.8958 34.7708 37.9375 34.8125C37.9792 34.8542 38.0208 34.875 38.0625 34.875C38.1042 34.875 38.1562 34.8542 38.2188 34.8125C38.2812 34.7708 38.3125 34.7083 38.3125 34.625C38.3125 34.5833 38.2812 34.5417 38.2188 34.5C38.1562 34.4583 38.1042 34.4375 38.0625 34.4375ZM28.5 35.875C28.4167 35.875 28.3646 35.8646 28.3438 35.8438C28.3229 35.8229 28.2917 35.7917 28.25 35.75C27.5833 35.4167 26.875 35.1875 26.125 35.0625C25.375 34.9375 24.6458 34.9167 23.9375 35C23.7292 35.0417 23.5 35.0208 23.25 34.9375C23 34.8542 22.7917 34.7292 22.625 34.5625C22.4583 34.4792 22.3229 34.3438 22.2188 34.1562C22.1146 33.9688 22.0625 33.7292 22.0625 33.4375V20.5C22.0625 20.125 22.2083 19.7708 22.5 19.4375C22.7917 19.1042 23.125 18.9167 23.5 18.875C24.8333 18.6667 26.1146 18.75 27.3438 19.125C28.5729 19.5 29.75 20.1458 30.875 21.0625C32.0417 20.1458 33.2396 19.5104 34.4688 19.1562C35.6979 18.8021 36.9792 18.7083 38.3125 18.875C38.6875 18.9167 39.0208 19.0938 39.3125 19.4062C39.6042 19.7188 39.75 20.0833 39.75 20.5V28.125C39.75 28.2917 39.6979 28.4271 39.5938 28.5312C39.4896 28.6354 39.3542 28.6875 39.1875 28.6875C39.0208 28.6875 38.8854 28.6354 38.7812 28.5312C38.6771 28.4271 38.625 28.2917 38.625 28.125V20.5C38.625 20.3333 38.5833 20.2083 38.5 20.125C38.4167 20.0417 38.3125 20 38.1875 20C36.8958 19.8333 35.6979 19.9167 34.5938 20.25C33.4896 20.5833 32.3958 21.2292 31.3125 22.1875C31.2292 22.3125 31.1146 22.375 30.9688 22.375C30.8229 22.375 30.6875 22.3125 30.5625 22.1875C29.5208 21.2292 28.4271 20.5625 27.2812 20.1875C26.1354 19.8125 24.9583 19.75 23.75 20C23.5833 20 23.4479 20.0417 23.3438 20.125C23.2396 20.2083 23.1875 20.3333 23.1875 20.5V33.5625C23.1875 33.6042 23.2083 33.6667 23.25 33.75C23.2917 33.8333 23.3333 33.9167 23.375 34C23.4583 34.0417 23.5417 34.0729 23.625 34.0938C23.7083 34.1146 23.7708 34.125 23.8125 34.125C24.7292 34 25.5938 34.0104 26.4062 34.1562C27.2188 34.3021 28.0208 34.5833 28.8125 35C28.8958 35.0417 28.9688 35.1354 29.0312 35.2812C29.0938 35.4271 29.0833 35.5833 29 35.75C28.9583 35.75 28.8854 35.7708 28.7812 35.8125C28.6771 35.8542 28.5833 35.875 28.5 35.875ZM28.5 36.1875C28.4167 36.1875 28.3542 36.1875 28.3125 36.1875C28.2708 36.1875 28.2083 36.1458 28.125 36.0625C27.4583 35.7292 26.7708 35.5104 26.0625 35.4062C25.3542 35.3021 24.6458 35.2708 23.9375 35.3125C23.6458 35.3542 23.375 35.3333 23.125 35.25C22.875 35.1667 22.625 35.0417 22.375 34.875C22.1667 34.7083 22.0104 34.5 21.9062 34.25C21.8021 34 21.75 33.7292 21.75 33.4375V20.5C21.75 20 21.9167 19.5833 22.25 19.25C22.5833 18.9167 22.9583 18.7083 23.375 18.625C24.75 18.4167 26.0625 18.4792 27.3125 18.8125C28.5625 19.1458 29.75 19.7917 30.875 20.75C32.0417 19.875 33.2396 19.25 34.4688 18.875C35.6979 18.5 36.9792 18.4167 38.3125 18.625C38.8125 18.7083 39.2083 18.9375 39.5 19.3125C39.7917 19.6875 39.9375 20.0833 39.9375 20.5V28.125C39.9375 28.375 39.8646 28.5833 39.7188 28.75C39.5729 28.9167 39.3542 29 39.0625 29C38.7708 29 38.5521 28.9271 38.4062 28.7812C38.2604 28.6354 38.1875 28.4167 38.1875 28.125V20.5C38.1875 20.4583 38.1667 20.4062 38.125 20.3438C38.0833 20.2812 38.0208 20.2292 37.9375 20.1875C36.7292 20.0208 35.5938 20.1146 34.5312 20.4688C33.4688 20.8229 32.3958 21.4583 31.3125 22.375C31.1458 22.5 30.9688 22.5625 30.7812 22.5625C30.5938 22.5625 30.4167 22.5 30.25 22.375C29.2083 21.5 28.1354 20.875 27.0312 20.5C25.9271 20.125 24.7917 20.0208 23.625 20.1875C23.5417 20.1875 23.4792 20.2188 23.4375 20.2812C23.3958 20.3438 23.375 20.4167 23.375 20.5V33.5625C23.375 33.6042 23.3854 33.6354 23.4062 33.6562C23.4271 33.6771 23.4583 33.7083 23.5 33.75C23.5417 33.8333 23.5729 33.875 23.5938 33.875C23.6146 33.875 23.6667 33.875 23.75 33.875C24.625 33.75 25.4896 33.7708 26.3438 33.9375C27.1979 34.1042 28.0208 34.375 28.8125 34.75C29.0208 34.875 29.1562 35.0312 29.2188 35.2188C29.2812 35.4062 29.25 35.625 29.125 35.875C29.125 35.9167 29.0521 35.9792 28.9062 36.0625C28.7604 36.1458 28.625 36.1875 28.5 36.1875ZM24.8125 34.75C25.4375 34.75 26.0417 34.8333 26.625 35C27.2083 35.1667 27.7917 35.375 28.375 35.625C28.4167 35.7083 28.4792 35.7292 28.5625 35.6875C28.6458 35.6458 28.6875 35.5833 28.6875 35.5C28.7292 35.4583 28.7396 35.3958 28.7188 35.3125C28.6979 35.2292 28.6458 35.1875 28.5625 35.1875C27.8125 34.8125 27.0417 34.5625 26.25 34.4375C25.4583 34.3125 24.625 34.2708 23.75 34.3125C23.625 34.3125 23.5104 34.3021 23.4062 34.2812C23.3021 34.2604 23.1875 34.2083 23.0625 34.125C22.9375 34.0417 22.8646 33.9479 22.8438 33.8438C22.8229 33.7396 22.8125 33.6458 22.8125 33.5625V20.5C22.8125 20.2917 22.8958 20.1146 23.0625 19.9688C23.2292 19.8229 23.4167 19.7083 23.625 19.625C24.875 19.4583 26.0833 19.5625 27.25 19.9375C28.4167 20.3125 29.5625 20.9792 30.6875 21.9375C30.7292 22.0208 30.7812 22.0625 30.8438 22.0625C30.9062 22.0625 30.9583 22.0208 31 21.9375C32.125 21.0208 33.2708 20.3646 34.4375 19.9688C35.6042 19.5729 36.8125 19.4583 38.0625 19.625C38.2708 19.7083 38.4479 19.8229 38.5938 19.9688C38.7396 20.1146 38.8125 20.2917 38.8125 20.5V28.125C38.8125 28.2083 38.8438 28.2708 38.9062 28.3125C38.9688 28.3542 39.0208 28.375 39.0625 28.375C39.1042 28.375 39.1562 28.3542 39.2188 28.3125C39.2812 28.2708 39.3125 28.2083 39.3125 28.125V20.5C39.3125 20.1667 39.1875 19.8646 38.9375 19.5938C38.6875 19.3229 38.3958 19.1875 38.0625 19.1875C36.8125 19.0208 35.5833 19.1146 34.375 19.4688C33.1667 19.8229 32 20.4375 30.875 21.3125V21.4375L30.6875 21.3125C29.5625 20.3542 28.4167 19.6979 27.25 19.3438C26.0833 18.9896 24.8333 18.8958 23.5 19.0625C23.1667 19.1458 22.8854 19.3229 22.6562 19.5938C22.4271 19.8646 22.3125 20.1667 22.3125 20.5V33.5625C22.3125 33.7292 22.3438 33.9062 22.4062 34.0938C22.4688 34.2812 22.5833 34.4375 22.75 34.5625C22.9167 34.6458 23.0833 34.7292 23.25 34.8125C23.4167 34.8958 23.6042 34.9167 23.8125 34.875C23.9792 34.8333 24.1458 34.8021 24.3125 34.7812C24.4792 34.7604 24.6458 34.75 24.8125 34.75ZM42.5 29.8125C42.3333 29.8125 42.1979 29.7604 42.0938 29.6562C41.9896 29.5521 41.9375 29.4167 41.9375 29.25V22.625C41.9375 22.4583 41.8854 22.3229 41.7812 22.2188C41.6771 22.1146 41.5417 22.0625 41.375 22.0625H39.1875C39.0208 22.0625 38.8854 22.0104 38.7812 21.9062C38.6771 21.8021 38.625 21.6667 38.625 21.5C38.625 21.3333 38.6771 21.1979 38.7812 21.0938C38.8854 20.9896 39.0208 20.9375 39.1875 20.9375H41.375C41.8333 20.9375 42.2292 21.1042 42.5625 21.4375C42.8958 21.7708 43.0625 22.1667 43.0625 22.625V29.25C43.0625 29.4167 43.0104 29.5521 42.9062 29.6562C42.8021 29.7604 42.6667 29.8125 42.5 29.8125ZM42.5 30C42.25 30 42.0417 29.9271 41.875 29.7812C41.7083 29.6354 41.625 29.4167 41.625 29.125V22.5C41.625 22.4583 41.5938 22.4167 41.5312 22.375C41.4688 22.3333 41.4167 22.3125 41.375 22.3125H39.1875C38.9375 22.3125 38.7292 22.2292 38.5625 22.0625C38.3958 21.8958 38.3125 21.6875 38.3125 21.4375C38.3125 21.1458 38.3854 20.9167 38.5312 20.75C38.6771 20.5833 38.8958 20.5 39.1875 20.5H41.375C41.9167 20.5 42.3854 20.6979 42.7812 21.0938C43.1771 21.4896 43.375 21.9583 43.375 22.5V29.125C43.3333 29.4167 43.2292 29.6354 43.0625 29.7812C42.8958 29.9271 42.7083 30 42.5 30ZM39.1875 21.1875C39.1042 21.1875 39.0417 21.2083 39 21.25C38.9583 21.2917 38.9375 21.3542 38.9375 21.4375C38.9375 21.4792 38.9583 21.5208 39 21.5625C39.0417 21.6042 39.1042 21.625 39.1875 21.625H41.375C41.5833 21.625 41.7812 21.7083 41.9688 21.875C42.1562 22.0417 42.25 22.25 42.25 22.5V29.125C42.25 29.1667 42.2708 29.2188 42.3125 29.2812C42.3542 29.3438 42.4167 29.375 42.5 29.375C42.5417 29.375 42.5833 29.3438 42.625 29.2812C42.6667 29.2188 42.6875 29.1667 42.6875 29.125V22.5C42.6875 22.125 42.5521 21.8125 42.2812 21.5625C42.0104 21.3125 41.7083 21.1875 41.375 21.1875H39.1875ZM28.125 37.5H20.4375C19.9792 37.5 19.5833 37.3333 19.25 37C18.9167 36.6667 18.75 36.2917 18.75 35.875V22.625C18.75 22.1667 18.9167 21.7708 19.25 21.4375C19.5833 21.1042 19.9792 20.9375 20.4375 20.9375H22.625C22.7917 20.9375 22.9271 20.9896 23.0312 21.0938C23.1354 21.1979 23.1875 21.3333 23.1875 21.5C23.1875 21.6667 23.1354 21.8021 23.0312 21.9062C22.9271 22.0104 22.7917 22.0625 22.625 22.0625H20.4375C20.2708 22.0625 20.1354 22.1146 20.0312 22.2188C19.9271 22.3229 19.875 22.4583 19.875 22.625V35.875C19.875 36.0417 19.9271 36.1771 20.0312 36.2812C20.1354 36.3854 20.2708 36.4375 20.4375 36.4375H28.125C28.2917 36.4375 28.4271 36.4792 28.5312 36.5625C28.6354 36.6458 28.6875 36.7708 28.6875 36.9375C28.6875 37.1042 28.6354 37.2396 28.5312 37.3438C28.4271 37.4479 28.2917 37.5 28.125 37.5ZM28.125 37.75H20.4375C19.8542 37.75 19.375 37.5521 19 37.1562C18.625 36.7604 18.4375 36.2917 18.4375 35.75V22.5C18.4375 22 18.625 21.5625 19 21.1875C19.375 20.8125 19.8125 20.5833 20.3125 20.5H22.5C22.7083 20.5 22.9062 20.5833 23.0938 20.75C23.2812 20.9167 23.375 21.1458 23.375 21.4375C23.375 21.6875 23.3021 21.8958 23.1562 22.0625C23.0104 22.2292 22.8333 22.3125 22.625 22.3125H20.4375C20.3542 22.3125 20.2917 22.3333 20.25 22.375C20.2083 22.4167 20.1875 22.4583 20.1875 22.5V35.75C20.1875 35.7917 20.2083 35.8438 20.25 35.9062C20.2917 35.9688 20.3542 36 20.4375 36H28.125C28.375 36 28.5833 36.0729 28.75 36.2188C28.9167 36.3646 29 36.5833 29 36.875C29 37.125 28.9167 37.3333 28.75 37.5C28.5833 37.6667 28.375 37.75 28.125 37.75ZM20.4375 21.1875C20.0208 21.1875 19.6875 21.3229 19.4375 21.5938C19.1875 21.8646 19.0625 22.1667 19.0625 22.5V35.75C19.0625 36.125 19.2083 36.4375 19.5 36.6875C19.7917 36.9375 20.1042 37.0625 20.4375 37.0625H28.125C28.2083 37.0625 28.2708 37.0417 28.3125 37C28.3542 36.9583 28.375 36.9167 28.375 36.875C28.375 36.7917 28.3542 36.7292 28.3125 36.6875C28.2708 36.6458 28.2083 36.625 28.125 36.625H20.4375C20.1875 36.625 19.9688 36.5521 19.7812 36.4062C19.5938 36.2604 19.5 36.0417 19.5 35.75V22.5C19.5 22.2917 19.5833 22.1042 19.75 21.9375C19.9167 21.7708 20.1042 21.6667 20.3125 21.625H22.5C22.5417 21.625 22.5938 21.6042 22.6562 21.5625C22.7188 21.5208 22.75 21.4792 22.75 21.4375C22.75 21.3542 22.7396 21.2917 22.7188 21.25C22.6979 21.2083 22.6667 21.1875 22.625 21.1875C22.625 21.1875 22.2604 21.1875 21.5312 21.1875C20.8021 21.1875 20.4375 21.1875 20.4375 21.1875ZM30.875 32C30.7083 32 30.5833 31.9479 30.5 31.8438C30.4167 31.7396 30.375 31.6042 30.375 31.4375V21.5C30.375 21.3333 30.4167 21.1979 30.5 21.0938C30.5833 20.9896 30.7083 20.9375 30.875 20.9375C31.0417 20.9375 31.1771 20.9896 31.2812 21.0938C31.3854 21.1979 31.4375 21.3333 31.4375 21.5V31.4375C31.4375 31.6042 31.3854 31.7396 31.2812 31.8438C31.1771 31.9479 31.0417 32 30.875 32ZM30.875 32.25C30.6667 32.25 30.4688 32.1667 30.2812 32C30.0938 31.8333 30 31.6042 30 31.3125V21.4375C30 21.1875 30.0833 20.9688 30.25 20.7812C30.4167 20.5938 30.625 20.5 30.875 20.5C31.1667 20.5 31.3854 20.5833 31.5312 20.75C31.6771 20.9167 31.75 21.1458 31.75 21.4375V31.3125C31.75 31.6042 31.6667 31.8333 31.5 32C31.3333 32.1667 31.125 32.25 30.875 32.25ZM30.875 21.1875C30.8333 21.1875 30.7917 21.2083 30.75 21.25C30.7083 21.2917 30.6875 21.3542 30.6875 21.4375V31.3125C30.6875 31.3958 30.7083 31.4583 30.75 31.5C30.7917 31.5417 30.8333 31.5625 30.875 31.5625C30.9583 31.5625 31.0208 31.5417 31.0625 31.5C31.1042 31.4583 31.125 31.3958 31.125 31.3125V21.4375C31.125 21.4375 31.1042 21.3958 31.0625 21.3125C31.0208 21.2292 30.9583 21.1875 30.875 21.1875Z"
        fill="currentColor" />
</svg>
