<svg version="1.1" id="layer" xmlns="http://www.w3.org/2000/svg"
    xmlns:xlink="http://www.w3.org/1999/xlink" x="0px" y="0px"
    viewBox="15 268 615 106" style="enable-background:new 0 0 652 652;"
    xml:space="preserve">

<path fill="#FF4713" class="st0" d="M464.5,274.8h-39.1l-8.9,13.7c-0.8,1.1-1.5,2.2-2.1,3.3c-0.8,1.5-1.9,3.8-1.9,3.8h-0.8c0,0-0.2-1.6-0.4-3.2
	c-0.1-1-0.4-2.1-0.7-3l-5.5-14.6h-39l23,43.5l-38.4,46l-24.4-46.1l36.6-43.5H324c0,0-8.8,13.5-10.4,16.1c-1,1.5-1.8,3.1-2.4,4.7
	h-0.8c0,0-0.2-1.9-0.3-3.1s-0.9-3.6-0.9-3.6l-5.4-14.1h-39l23.1,43.5l-37.4,44.9l-18.5-88.5h-38.4l-43.9,85.8l-1-85.8h-35.3
	l-20.8,48.7h-0.8l-5.5-48.7H50.8l-30,92.8h33.4l12.9-50.8l1.1,0.1c0,0,0,3.4,0,5.3c0,1.9,0.5,6.8,0.5,6.8l6.1,38.8H95
	c0,0,21.2-43.3,22-45.4c0.8-2.2,2-5.4,2-5.4h0.6c0,0-2.8,44.5-3.1,47.6c-0.2,1-0.2,2.1-0.1,3.2h66.1l4.6-11.5h26.2l1.2,11.5h71.4
	c0,0,14.6-20.6,15.2-21.5c0.8-1.3,1.5-2.6,2.1-4h1c0,0.7,0,1.4,0,2.1c0.1,0.9,0.3,1.8,0.7,2.6l7.9,20.6h74.4l14.7-20.8
	c0.7-1,2.5-4.5,2.5-4.5h1.1c0,0,0,0.5,0.1,1.6c0.1,0.9,0.4,1.8,0.6,2.6l8.1,21.1h39.4l-26.1-49.4L464.5,274.8z M196.8,334.1
	l10.8-28.3h1.2v4.3c0,2.3,0.3,6.9,0.3,6.9l1.5,17.1H196.8z M470.9,274.8l-14.6,93h34.6l14.6-93L470.9,274.8z M546.3,298.4
	c4.5-0.6,9.1,0.1,13.2,1.9c2.9,1.4,5.7,3,8.4,4.9l13.2-23.7c0,0-10.6-8.5-30.1-8.2c-19.5,0.3-34.4,12.2-38.8,18.6
	c-4.5,6.4-8.6,15.8-6.3,24.8s10.5,13,17.1,14.8c6.5,1.8,10.4,1.7,13.4,2.6c3,0.9,4.2,2.4,3.8,4.7s-3,5.3-10.1,5.4
	s-14.8-4.3-18.1-7.1l-3.3-2.6l-14.8,26.1c11.3,5.9,23.9,8.8,36.7,8.5c20.5-0.8,33.2-10.3,38.4-17.4c5.2-7.1,9.3-17.5,5.8-28.3
	c-3.2-10.1-18.1-13.8-21.2-14.3c-3.5-0.6-6.9-1.5-10.3-2.5c-1.2-0.6-2.5-1.2-2.4-3.4C541,301.1,542.8,299.1,546.3,298.4L546.3,298.4
	z M608.3,281.8c0,0-13-0.5-17.1,11.6c-1.7,5.1,2.4,12.4,12,12.4c6.1,0,16-3.6,17.4-11.9C622.1,284.8,613.4,281.8,608.3,281.8z
	 M617,294.7c-1.7,6.4-9.6,8.3-12.8,8.3c-4.8,0-11.4-3-9.5-9.6c2.6-9.3,13.1-9,13.1-9C613.6,284.5,618.7,288.4,617,294.7z
	 M611.6,287.6c-0.5-0.1-3.6-0.1-3.6-0.1h-6.8l-2.4,12.4h3.3l1.1-5.2h2.4l2.4,5.2h3.7l-2.6-5.3c0,0,3.6-0.1,4.2-2
	c0.6-1.9,0.8-2.4,0.4-3.4C613.3,288.3,612.5,287.7,611.6,287.6L611.6,287.6z M610.7,291.3c-0.4,0.9-1.2,1.5-2.2,1.6h-4.9l0.6-3.3
	h5.1C609.3,289.5,611.2,289.8,610.7,291.3z"/>
</svg>
