<svg viewBox="0 0 32 32" fill="none" xmlns="http://www.w3.org/2000/svg">
    <path
        d="M20.5 9C21.8807 9 23 7.88071 23 6.5C23 5.11929 21.8807 4 20.5 4C19.1193 4 18 5.11929 18 6.5C18 7.88071 19.1193 9 20.5 9Z"
        stroke="currentColor" stroke-width="1.5" stroke-linecap="round" stroke-linejoin="round" />
    <path
        d="M1 25.0005L10.1375 9.49297C10.2257 9.34259 10.3517 9.2179 10.503 9.13125C10.6543 9.04461 10.8257 8.99902 11 8.99902C11.1743 8.99902 11.3457 9.04461 11.497 9.13125C11.6483 9.2179 11.7743 9.34259 11.8625 9.49297L21 25.0005H1Z"
        stroke="currentColor" stroke-width="1.5" stroke-linecap="round" stroke-linejoin="round" />
    <path d="M6.2937 16H15.7062" stroke="currentColor" stroke-width="1.5" stroke-linecap="round"
        stroke-linejoin="round" />
    <path
        d="M18.3262 20.4635L22.4587 13.4897C22.5472 13.3405 22.6731 13.2169 22.8238 13.131C22.9746 13.0451 23.1452 13 23.3187 13C23.4922 13 23.6627 13.0451 23.8135 13.131C23.9643 13.2169 24.0901 13.3405 24.1787 13.4897L30.9999 24.9997H20.9999"
        stroke="currentColor" stroke-width="1.5" stroke-linecap="round" stroke-linejoin="round" />
</svg>
