<svg viewBox="0 0 19 19" fill="none" xmlns="http://www.w3.org/2000/svg">
    <path
        d="M14.7166 16.8323C13.4349 15.4008 11.5727 14.5 9.5 14.5C7.42734 14.5 5.56492 15.4008 4.2832 16.8323M9.5 18.5C4.52944 18.5 0.5 14.4706 0.5 9.5C0.5 4.52944 4.52944 0.5 9.5 0.5C14.4706 0.5 18.5 4.52944 18.5 9.5C18.5 14.4706 14.4706 18.5 9.5 18.5ZM9.5 11.5C7.84315 11.5 6.5 10.1569 6.5 8.5C6.5 6.84315 7.84315 5.5 9.5 5.5C11.1569 5.5 12.5 6.84315 12.5 8.5C12.5 10.1569 11.1569 11.5 9.5 11.5Z"
        stroke="currentColor" stroke-linecap="round" stroke-linejoin="round" />
</svg>
