<svg width="33" height="29" viewBox="0 0 33 29" fill="none" xmlns="http://www.w3.org/2000/svg">
    <path
        d="M21 27.6667C21 23.9848 16.5228 21 11 21C5.47715 21 1 23.9848 1 27.6667M24.0469 4.61979C24.6659 5.23885 25.157 5.97378 25.492 6.78261C25.8271 7.59145 25.9998 8.45889 25.9998 9.33436C25.9998 10.2098 25.8272 11.075 25.4922 11.8838C25.1572 12.6926 24.6659 13.4284 24.0469 14.0475M27.6667 1C28.761 2.09435 29.6291 3.39353 30.2214 4.82336C30.8136 6.2532 31.1197 7.78544 31.1197 9.33309C31.1197 10.8807 30.8143 12.4136 30.222 13.8434C29.6297 15.2733 28.761 16.5726 27.6667 17.6669M11 16C7.3181 16 4.33333 13.0152 4.33333 9.33333C4.33333 5.65143 7.3181 2.66667 11 2.66667C14.6819 2.66667 17.6667 5.65143 17.6667 9.33333C17.6667 13.0152 14.6819 16 11 16Z"
        stroke="currentColor" stroke-width="2" stroke-linecap="round" stroke-linejoin="round" />
</svg>
