<svg viewBox="0 0 29 24" fill="none" xmlns="http://www.w3.org/2000/svg">
    <path
        d="M1 22.7898H3.66667M3.66667 22.7898H11.6667M3.66667 22.7898V11.3927C3.66667 10.6802 3.66667 10.3238 3.7533 9.99229C3.83006 9.6985 3.95706 9.42047 4.1276 9.16924C4.32005 8.88573 4.58752 8.65064 5.1237 8.18148L11.5258 2.57963C12.5198 1.7099 13.0168 1.27501 13.5766 1.10948C14.0701 0.963508 14.5963 0.963508 15.0898 1.10948C15.65 1.27513 16.1477 1.71043 17.1432 2.58148L23.5432 8.18148C24.0794 8.65062 24.347 8.88573 24.5394 9.16923C24.71 9.42047 24.836 9.6985 24.9128 9.99229C24.9994 10.3238 25 10.6802 25 11.3927V22.7898M11.6667 22.7898H17M11.6667 22.7898V17.4565C11.6667 15.9837 12.8606 14.7898 14.3333 14.7898C15.8061 14.7898 17 15.9837 17 17.4565V22.7898M17 22.7898H25M25 22.7898H27.6667"
        stroke="currentColor" stroke-width="2" stroke-linecap="round" stroke-linejoin="round" />
</svg>
