<svg viewBox="0 0 29 32" fill="none" xmlns="http://www.w3.org/2000/svg">
    <path
        d="M19.3333 11L12.6667 17.6667L9.33333 14.3333M27.6667 12.9417C27.6667 23.8888 19.3866 28.7968 15.8763 30.3856L15.8719 30.3876C15.5027 30.5547 15.3176 30.6385 14.8981 30.7105C14.6324 30.7561 14.0359 30.7561 13.7702 30.7105C13.349 30.6382 13.162 30.5541 12.7899 30.3857C9.27966 28.7968 1 23.8888 1 12.9417V6.33366C1 4.46682 1 3.5327 1.36331 2.81966C1.68289 2.19245 2.19245 1.68289 2.81966 1.36331C3.5327 1 4.46682 1 6.33366 1H22.3337C24.2005 1 25.1326 1 25.8457 1.36331C26.4729 1.68289 26.9841 2.19245 27.3037 2.81966C27.6667 3.532 27.6667 4.46499 27.6667 6.32818V12.9417Z"
        stroke="currentColor" stroke-width="2" stroke-linecap="round" stroke-linejoin="round" />
</svg>
